  0
SECTION
  2
HEADER
  9
$ACADVER
  1
AC1014
  9
$HANDSEED
  5
FFFF
  9
$MEASUREMENT
 70
     1
  0
ENDSEC
  0
SECTION
  2
TABLES
  0
TABLE
  2
VPORT
  5
8
330
0
100
AcDbSymbolTable
 70
     4
  0
VPORT
  5
2E
330
8
100
AcDbSymbolTableRecord
100
AcDbViewportTableRecord
  2
*ACTIVE
 70
     0
 10
0.0
 20
0.0
 11
1.0
 21
1.0
 12
210.0
 22
148.5
 13
0.0
 23
0.0
 14
10.0
 24
10.0
 15
10.0
 25
10.0
 16
0.0
 26
0.0
 36
1.0
 17
0.0
 27
0.0
 37
0.0
 40
341.0
 41
1.24
 42
50.0
 43
0.0
 44
0.0
 50
0.0
 51
0.0
 71
     0
 72
   100
 73
     1
 74
     3
 75
     0
 76
     0
 77
     0
 78
     0
  0
ENDTAB
  0
TABLE
  2
LTYPE
  5
5
330
0
100
AcDbSymbolTable
 70
     1
  0
LTYPE
  5
14
330
5
100
AcDbSymbolTableRecord
100
AcDbLinetypeTableRecord
  2
BYBLOCK
 70
     0
  3

 72
    65
 73
     0
 40
0.0
  0
LTYPE
  5
15
330
5
100
AcDbSymbolTableRecord
100
AcDbLinetypeTableRecord
  2
BYLAYER
 70
     0
  3

 72
    65
 73
     0
 40
0.0
  0
LTYPE
  5
16
330
5
100
AcDbSymbolTableRecord
100
AcDbLinetypeTableRecord
  2
CONTINUOUS
 70
     0
  3
Solid line
 72
    65
 73
     0
 40
0.0
  0
ENDTAB
  0
TABLE
  2
LAYER
  5
2
100
AcDbSymbolTable
 70
3
  0
LAYER
  5
50
100
AcDbSymbolTableRecord
100
AcDbLayerTableRecord
  2
0
 70
0
  6
CONTINUOUS
  0
LAYER
  5
51
100
AcDbSymbolTableRecord
100
AcDbLayerTableRecord
  2
Ebene_1
 70
0
  6
CONTINUOUS
  0
LAYER
  5
52
100
AcDbSymbolTableRecord
100
AcDbLayerTableRecord
  2
Ebene_2
 70
0
  6
CONTINUOUS
  0
ENDTAB
  0
TABLE
  2
STYLE
  5
3
330
0
100
AcDbSymbolTable
 70
     1
  0
STYLE
  5
11
330
3
100
AcDbSymbolTableRecord
100
AcDbTextStyleTableRecord
  2
STANDARD
 70
     0
 40
0.0
 41
1.0
 50
0.0
 71
     0
 42
2.5
  3
txt
  4

  0
ENDTAB
  0
TABLE
  2
VIEW
  5
6
330
0
100
AcDbSymbolTable
 70
     0
  0
ENDTAB
  0
TABLE
  2
UCS
  5
7
330
0
100
AcDbSymbolTable
 70
     0
  0
ENDTAB
  0
TABLE
  2
APPID
  5
9
330
0
100
AcDbSymbolTable
 70
     2
  0
APPID
  5
12
330
9
100
AcDbSymbolTableRecord
100
AcDbRegAppTableRecord
  2
ACAD
 70
     0
  0
ENDTAB
  0
TABLE
  2
DIMSTYLE
  5
A
330
0
100
AcDbSymbolTable
 70
     1
  0
DIMSTYLE
105
27
330
A
100
AcDbSymbolTableRecord
100
AcDbDimStyleTableRecord
  2
ISO-25
 70
     0
  3

  4

  5

  6

  7

 40
1.0
 41
2.5
 42
0.625
 43
3.75
 44
1.25
 45
0.0
 46
0.0
 47
0.0
 48
0.0
140
2.5
141
2.5
142
0.0
143
0.03937007874016
144
1.0
145
0.0
146
1.0
147
0.625
 71
     0
 72
     0
 73
     0
 74
     0
 75
     0
 76
     0
 77
     1
 78
     8
170
     0
171
     3
172
     1
173
     0
174
     0
175
     0
176
     0
177
     0
178
     0
270
     2
271
     2
272
     2
273
     2
274
     3
340
11
275
     0
280
     0
281
     0
282
     0
283
     0
284
     8
285
     0
286
     0
287
     3
288
     0
  0
ENDTAB
  0
TABLE
  2
BLOCK_RECORD
  5
1
330
0
100
AcDbSymbolTable
 70
     1
  0
BLOCK_RECORD
  5
1F
330
1
100
AcDbSymbolTableRecord
100
AcDbBlockTableRecord
  2
*MODEL_SPACE
  0
BLOCK_RECORD
  5
1B
330
1
100
AcDbSymbolTableRecord
100
AcDbBlockTableRecord
  2
*PAPER_SPACE
  0
ENDTAB
  0
ENDSEC
  0
SECTION
  2
BLOCKS
  0
BLOCK
  5
20
330
1F
100
AcDbEntity
  8
0
100
AcDbBlockBegin
  2
*MODEL_SPACE
 70
     0
 10
0.0
 20
0.0
 30
0.0
  3
*MODEL_SPACE
  1

  0
ENDBLK
  5
21
330
1F
100
AcDbEntity
  8
0
100
AcDbBlockEnd
  0
BLOCK
  5
1C
330
1B
100
AcDbEntity
 67
     1
  8
0
100
AcDbBlockBegin
  2
*PAPER_SPACE
  1

  0
ENDBLK
  5
1D
330
1B
100
AcDbEntity
 67
     1
  8
0
100
AcDbBlockEnd
  0
ENDSEC
  0
SECTION
  2
ENTITIES
  0
LINE
  5
100
100
AcDbEntity
  8
Ebene_2
 62
7
100
AcDbLine
 10
20.027397
 20
228.355086
 30
0.0
 11
30.005460
 21
225.397301
 31
0.0
  0
LINE
  5
101
100
AcDbEntity
  8
Ebene_2
 62
7
100
AcDbLine
 10
39.983520
 20
222.154432
 30
0.0
 11
49.961583
 21
219.125378
 31
0.0
  0
LINE
  5
102
100
AcDbEntity
  8
Ebene_2
 62
7
100
AcDbLine
 10
0.178180
 20
234.306286
 30
0.0
 11
10.120606
 21
231.384140
 31
0.0
  0
LINE
  5
103
100
AcDbEntity
  8
Ebene_2
 62
7
100
AcDbLine
 10
10.120606
 20
231.384140
 30
0.0
 11
19.742309
 21
228.497628
 31
0.0
  0
LINE
  5
104
100
AcDbEntity
  8
Ebene_2
 62
7
100
AcDbLine
 10
19.742309
 20
228.497628
 30
0.0
 11
30.058913
 21
225.308212
 31
0.0
  0
LINE
  5
105
100
AcDbEntity
  8
Ebene_2
 62
7
100
AcDbLine
 10
30.058913
 20
225.308212
 30
0.0
 11
40.036976
 21
222.279158
 31
0.0
  0
LINE
  5
106
100
AcDbEntity
  8
Ebene_2
 62
7
100
AcDbLine
 10
40.036976
 20
222.279158
 30
0.0
 11
50.068491
 21
219.018469
 31
0.0
  0
LINE
  5
107
100
AcDbEntity
  8
Ebene_2
 62
7
100
AcDbLine
 10
50.068491
 20
219.018469
 30
0.0
 11
59.886192
 21
215.829053
 31
0.0
  0
LINE
  5
108
100
AcDbEntity
  8
Ebene_2
 62
7
100
AcDbLine
 10
59.886192
 20
215.829053
 30
0.0
 11
69.775166
 21
212.372367
 31
0.0
  0
LINE
  5
109
100
AcDbEntity
  8
Ebene_2
 62
7
100
AcDbLine
 10
69.775166
 20
212.372367
 30
0.0
 11
80.038315
 21
208.648411
 31
0.0
  0
LINE
  5
10a
100
AcDbEntity
  8
Ebene_2
 62
7
100
AcDbLine
 10
80.038315
 20
208.648411
 30
0.0
 11
89.945106
 21
205.013547
 31
0.0
  0
LINE
  5
10b
100
AcDbEntity
  8
Ebene_2
 62
7
100
AcDbLine
 10
89.945106
 20
205.013547
 30
0.0
 11
100.047893
 21
201.057957
 31
0.0
  0
LINE
  5
10c
100
AcDbEntity
  8
Ebene_2
 62
7
100
AcDbLine
 10
100.047893
 20
201.057957
 30
0.0
 11
109.865592
 21
196.781644
 31
0.0
  0
LINE
  5
10d
100
AcDbEntity
  8
Ebene_2
 62
7
100
AcDbLine
 10
109.865592
 20
196.781644
 30
0.0
 11
119.825838
 21
192.309334
 31
0.0
  0
LINE
  5
10e
100
AcDbEntity
  8
Ebene_2
 62
7
100
AcDbLine
 10
119.825838
 20
192.309334
 30
0.0
 11
129.732631
 21
187.409394
 31
0.0
  0
LINE
  5
10f
100
AcDbEntity
  8
Ebene_2
 62
7
100
AcDbLine
 10
129.732631
 20
187.409394
 30
0.0
 11
139.888869
 21
182.046184
 31
0.0
  0
LINE
  5
110
100
AcDbEntity
  8
Ebene_2
 62
7
100
AcDbLine
 10
139.888869
 20
182.046184
 30
0.0
 11
144.860083
 21
179.177491
 31
0.0
  0
LINE
  5
111
100
AcDbEntity
  8
Ebene_2
 62
7
100
AcDbLine
 10
144.860083
 20
179.177491
 30
0.0
 11
149.866931
 21
176.059348
 31
0.0
  0
LINE
  5
112
100
AcDbEntity
  8
Ebene_2
 62
7
100
AcDbLine
 10
149.866931
 20
176.059348
 30
0.0
 11
155.034144
 21
172.353208
 31
0.0
  0
LINE
  5
113
100
AcDbEntity
  8
Ebene_2
 62
7
100
AcDbLine
 10
155.034144
 20
172.353208
 30
0.0
 11
158.027562
 21
169.787422
 31
0.0
  0
SPLINE
  5
114
100
AcDbEntity
  8
Ebene_2
 62
7
100
AcDbSpline
 70
8
 71
3
 72
8
 73
4
 74
0
 40
0
 40
0
 40
0
 40
0
 40
1
 40
1
 40
1
 40
1
 10
158.027562
 20
169.787422
 30
0.0
 10
158.027562
 20
169.787422
 30
0.0
 10
160.135288
 20
167.723460
 30
0.0
 10
161.020983
 20
166.776187
 30
0.0
  0
SPLINE
  5
115
100
AcDbEntity
  8
Ebene_2
 62
7
100
AcDbSpline
 70
8
 71
3
 72
8
 73
4
 74
0
 40
0
 40
0
 40
0
 40
0
 40
1
 40
1
 40
1
 40
1
 10
161.020983
 20
166.776187
 30
0.0
 10
161.906678
 20
165.828914
 30
0.0
 10
162.836098
 20
164.783907
 30
0.0
 10
163.355136
 20
164.121308
 30
0.0
  0
SPLINE
  5
116
100
AcDbEntity
  8
Ebene_2
 62
7
100
AcDbSpline
 70
8
 71
3
 72
8
 73
4
 74
0
 40
0
 40
0
 40
0
 40
0
 40
1
 40
1
 40
1
 40
1
 10
163.355136
 20
164.121308
 30
0.0
 10
163.874171
 20
163.458710
 30
0.0
 10
163.889622
 20
163.418025
 30
0.0
 10
164.220316
 20
162.877580
 30
0.0
  0
SPLINE
  5
117
100
AcDbEntity
  8
Ebene_2
 62
7
100
AcDbSpline
 70
8
 71
3
 72
8
 73
4
 74
0
 40
0
 40
0
 40
0
 40
0
 40
1
 40
1
 40
1
 40
1
 10
164.220316
 20
162.877580
 30
0.0
 10
164.551010
 20
162.337136
 30
0.0
 10
164.999224
 20
161.573685
 30
0.0
 10
165.297296
 20
160.860620
 30
0.0
  0
SPLINE
  5
118
100
AcDbEntity
  8
Ebene_2
 62
7
100
AcDbSpline
 70
8
 71
3
 72
8
 73
4
 74
0
 40
0
 40
0
 40
0
 40
0
 40
1
 40
1
 40
1
 40
1
 10
165.297296
 20
160.860620
 30
0.0
 10
165.595368
 20
160.147554
 30
0.0
 10
165.829480
 20
159.477553
 30
0.0
 10
165.995178
 20
158.615946
 30
0.0
  0
SPLINE
  5
119
100
AcDbEntity
  8
Ebene_2
 62
7
100
AcDbSpline
 70
8
 71
3
 72
8
 73
4
 74
0
 40
0
 40
0
 40
0
 40
0
 40
1
 40
1
 40
1
 40
1
 10
165.995178
 20
158.615946
 30
0.0
 10
166.160876
 20
157.754341
 30
0.0
 10
166.236071
 20
156.581781
 30
0.0
 10
166.223829
 20
155.711227
 30
0.0
  0
SPLINE
  5
11a
100
AcDbEntity
  8
Ebene_2
 62
7
100
AcDbSpline
 70
8
 71
3
 72
8
 73
4
 74
0
 40
0
 40
0
 40
0
 40
0
 40
1
 40
1
 40
1
 40
1
 10
166.223829
 20
155.711227
 30
0.0
 10
166.211580
 20
154.840673
 30
0.0
 10
166.140666
 20
154.253095
 30
0.0
 10
165.977849
 20
153.414223
 30
0.0
  0
SPLINE
  5
11b
100
AcDbEntity
  8
Ebene_2
 62
7
100
AcDbSpline
 70
8
 71
3
 72
8
 73
4
 74
0
 40
0
 40
0
 40
0
 40
0
 40
1
 40
1
 40
1
 40
1
 10
165.977849
 20
153.414223
 30
0.0
 10
165.815033
 20
152.575352
 30
0.0
 10
165.496248
 20
151.584729
 30
0.0
 10
165.208204
 20
150.704376
 30
0.0
  0
SPLINE
  5
11c
100
AcDbEntity
  8
Ebene_2
 62
7
100
AcDbSpline
 70
8
 71
3
 72
8
 73
4
 74
0
 40
0
 40
0
 40
0
 40
0
 40
1
 40
1
 40
1
 40
1
 10
165.208204
 20
150.704376
 30
0.0
 10
164.920160
 20
149.824026
 30
0.0
 10
164.597252
 20
148.904154
 30
0.0
 10
164.253799
 20
148.135293
 30
0.0
  0
SPLINE
  5
11d
100
AcDbEntity
  8
Ebene_2
 62
7
100
AcDbSpline
 70
8
 71
3
 72
8
 73
4
 74
0
 40
0
 40
0
 40
0
 40
0
 40
1
 40
1
 40
1
 40
1
 10
164.253799
 20
148.135293
 30
0.0
 10
163.910346
 20
147.366435
 30
0.0
 10
163.710849
 20
146.907869
 30
0.0
 10
163.176955
 20
146.089524
 30
0.0
  0
SPLINE
  5
11e
100
AcDbEntity
  8
Ebene_2
 62
7
100
AcDbSpline
 70
8
 71
3
 72
8
 73
4
 74
0
 40
0
 40
0
 40
0
 40
0
 40
1
 40
1
 40
1
 40
1
 10
163.176955
 20
146.089524
 30
0.0
 10
162.643061
 20
145.271178
 30
0.0
 10
161.825463
 20
144.303088
 30
0.0
 10
160.967527
 20
143.309923
 30
0.0
  0
SPLINE
  5
11f
100
AcDbEntity
  8
Ebene_2
 62
7
100
AcDbSpline
 70
8
 71
3
 72
8
 73
4
 74
0
 40
0
 40
0
 40
0
 40
0
 40
1
 40
1
 40
1
 40
1
 10
160.967527
 20
143.309923
 30
0.0
 10
160.109594
 20
142.316754
 30
0.0
 10
158.009745
 20
140.156140
 30
0.0
 10
158.009745
 20
140.156140
 30
0.0
  0
LINE
  5
120
100
AcDbEntity
  8
Ebene_2
 62
7
100
AcDbLine
 10
158.009745
 20
140.156140
 30
0.0
 11
155.034144
 21
137.679443
 31
0.0
  0
LINE
  5
121
100
AcDbEntity
  8
Ebene_2
 62
7
100
AcDbLine
 10
155.034144
 20
137.679443
 30
0.0
 11
149.991659
 21
133.919850
 31
0.0
  0
LINE
  5
122
100
AcDbEntity
  8
Ebene_2
 62
7
100
AcDbLine
 10
149.991659
 20
133.919850
 30
0.0
 11
145.073901
 21
130.552256
 31
0.0
  0
LINE
  5
123
100
AcDbEntity
  8
Ebene_2
 62
7
100
AcDbLine
 10
145.073901
 20
130.552256
 30
0.0
 11
140.031414
 21
127.255932
 31
0.0
  0
LINE
  5
124
100
AcDbEntity
  8
Ebene_2
 62
7
100
AcDbLine
 10
140.031414
 20
127.255932
 30
0.0
 11
135.024566
 21
124.494147
 31
0.0
  0
LINE
  5
125
100
AcDbEntity
  8
Ebene_2
 62
7
100
AcDbLine
 10
135.024566
 20
124.494147
 30
0.0
 11
130.053354
 21
122.017450
 31
0.0
  0
LINE
  5
126
100
AcDbEntity
  8
Ebene_2
 62
7
100
AcDbLine
 10
130.053354
 20
122.017450
 30
0.0
 11
120.075291
 21
117.135324
 31
0.0
  0
LINE
  5
127
100
AcDbEntity
  8
Ebene_2
 62
7
100
AcDbLine
 10
120.075291
 20
117.135324
 30
0.0
 11
110.025956
 21
113.001556
 31
0.0
  0
LINE
  5
128
100
AcDbEntity
  8
Ebene_2
 62
7
100
AcDbLine
 10
110.025956
 20
113.001556
 30
0.0
 11
100.030077
 21
108.921241
 31
0.0
  0
LINE
  5
129
100
AcDbEntity
  8
Ebene_2
 62
7
100
AcDbLine
 10
100.030077
 20
108.921241
 30
0.0
 11
90.069831
 21
105.072560
 31
0.0
  0
LINE
  5
12a
100
AcDbEntity
  8
Ebene_2
 62
7
100
AcDbLine
 10
90.069831
 20
105.072560
 30
0.0
 11
80.109588
 21
101.508968
 31
0.0
  0
LINE
  5
12b
100
AcDbEntity
  8
Ebene_2
 62
7
100
AcDbLine
 10
80.109588
 20
101.508968
 30
0.0
 11
70.042433
 21
97.874101
 31
0.0
  0
LINE
  5
12c
100
AcDbEntity
  8
Ebene_2
 62
7
100
AcDbLine
 10
70.042433
 20
97.874101
 30
0.0
 11
60.206915
 21
94.381779
 31
0.0
  0
LINE
  5
12d
100
AcDbEntity
  8
Ebene_2
 62
7
100
AcDbLine
 10
60.206915
 20
94.381779
 30
0.0
 11
50.032855
 21
90.764731
 31
0.0
  0
LINE
  5
12e
100
AcDbEntity
  8
Ebene_2
 62
7
100
AcDbLine
 10
50.032855
 20
90.764731
 30
0.0
 11
40.019156
 21
87.343681
 31
0.0
  0
LINE
  5
12f
100
AcDbEntity
  8
Ebene_2
 62
7
100
AcDbLine
 10
40.019156
 20
87.343681
 30
0.0
 11
30.023277
 21
83.958268
 31
0.0
  0
LINE
  5
130
100
AcDbEntity
  8
Ebene_2
 62
7
100
AcDbLine
 10
30.023277
 20
83.958268
 30
0.0
 11
20.027397
 21
80.697579
 31
0.0
  0
LINE
  5
131
100
AcDbEntity
  8
Ebene_2
 62
7
100
AcDbLine
 10
20.027397
 20
80.697579
 30
0.0
 11
10.013698
 21
77.668525
 31
0.0
  0
LINE
  5
132
100
AcDbEntity
  8
Ebene_2
 62
7
100
AcDbLine
 10
10.013698
 20
77.668525
 30
0.0
 11
-0.089090
 21
74.639470
 31
0.0
  0
LINE
  5
133
100
AcDbEntity
  8
Ebene_2
 62
7
100
AcDbLine
 10
-0.089090
 20
74.639470
 30
0.0
 11
-0.089090
 21
74.639470
 31
0.0
  0
ENDSEC
  0
SECTION
  2
OBJECTS
  0
DICTIONARY
  5
C
330
0
100
AcDbDictionary
  3
ACAD_GROUP
350
D
  3
ACAD_MLINESTYLE
350
17
  0
DICTIONARY
  5
D
330
C
100
AcDbDictionary
  0
DICTIONARY
  5
1A
330
C
100
AcDbDictionary
  0
DICTIONARY
  5
17
330
C
100
AcDbDictionary
  3
STANDARD
350
18
  0
DICTIONARY
  5
19
330
C
100
AcDbDictionary
  0
ENDSEC
  0
EOF
