  0
SECTION
  2
HEADER
  9
$ACADVER
  1
AC1014
  9
$HANDSEED
  5
FFFF
  9
$MEASUREMENT
 70
     1
  0
ENDSEC
  0
SECTION
  2
TABLES
  0
TABLE
  2
VPORT
  5
8
330
0
100
AcDbSymbolTable
 70
     4
  0
VPORT
  5
2E
330
8
100
AcDbSymbolTableRecord
100
AcDbViewportTableRecord
  2
*ACTIVE
 70
     0
 10
0.0
 20
0.0
 11
1.0
 21
1.0
 12
210.0
 22
148.5
 13
0.0
 23
0.0
 14
10.0
 24
10.0
 15
10.0
 25
10.0
 16
0.0
 26
0.0
 36
1.0
 17
0.0
 27
0.0
 37
0.0
 40
341.0
 41
1.24
 42
50.0
 43
0.0
 44
0.0
 50
0.0
 51
0.0
 71
     0
 72
   100
 73
     1
 74
     3
 75
     0
 76
     0
 77
     0
 78
     0
  0
ENDTAB
  0
TABLE
  2
LTYPE
  5
5
330
0
100
AcDbSymbolTable
 70
     1
  0
LTYPE
  5
14
330
5
100
AcDbSymbolTableRecord
100
AcDbLinetypeTableRecord
  2
BYBLOCK
 70
     0
  3

 72
    65
 73
     0
 40
0.0
  0
LTYPE
  5
15
330
5
100
AcDbSymbolTableRecord
100
AcDbLinetypeTableRecord
  2
BYLAYER
 70
     0
  3

 72
    65
 73
     0
 40
0.0
  0
LTYPE
  5
16
330
5
100
AcDbSymbolTableRecord
100
AcDbLinetypeTableRecord
  2
CONTINUOUS
 70
     0
  3
Solid line
 72
    65
 73
     0
 40
0.0
  0
ENDTAB
  0
TABLE
  2
LAYER
  5
2
100
AcDbSymbolTable
 70
3
  0
LAYER
  5
50
100
AcDbSymbolTableRecord
100
AcDbLayerTableRecord
  2
0
 70
0
  6
CONTINUOUS
  0
LAYER
  5
51
100
AcDbSymbolTableRecord
100
AcDbLayerTableRecord
  2
Ebene_1
 70
0
  6
CONTINUOUS
  0
LAYER
  5
52
100
AcDbSymbolTableRecord
100
AcDbLayerTableRecord
  2
Ebene_2
 70
0
  6
CONTINUOUS
  0
ENDTAB
  0
TABLE
  2
STYLE
  5
3
330
0
100
AcDbSymbolTable
 70
     1
  0
STYLE
  5
11
330
3
100
AcDbSymbolTableRecord
100
AcDbTextStyleTableRecord
  2
STANDARD
 70
     0
 40
0.0
 41
1.0
 50
0.0
 71
     0
 42
2.5
  3
txt
  4

  0
ENDTAB
  0
TABLE
  2
VIEW
  5
6
330
0
100
AcDbSymbolTable
 70
     0
  0
ENDTAB
  0
TABLE
  2
UCS
  5
7
330
0
100
AcDbSymbolTable
 70
     0
  0
ENDTAB
  0
TABLE
  2
APPID
  5
9
330
0
100
AcDbSymbolTable
 70
     2
  0
APPID
  5
12
330
9
100
AcDbSymbolTableRecord
100
AcDbRegAppTableRecord
  2
ACAD
 70
     0
  0
ENDTAB
  0
TABLE
  2
DIMSTYLE
  5
A
330
0
100
AcDbSymbolTable
 70
     1
  0
DIMSTYLE
105
27
330
A
100
AcDbSymbolTableRecord
100
AcDbDimStyleTableRecord
  2
ISO-25
 70
     0
  3

  4

  5

  6

  7

 40
1.0
 41
2.5
 42
0.625
 43
3.75
 44
1.25
 45
0.0
 46
0.0
 47
0.0
 48
0.0
140
2.5
141
2.5
142
0.0
143
0.03937007874016
144
1.0
145
0.0
146
1.0
147
0.625
 71
     0
 72
     0
 73
     0
 74
     0
 75
     0
 76
     0
 77
     1
 78
     8
170
     0
171
     3
172
     1
173
     0
174
     0
175
     0
176
     0
177
     0
178
     0
270
     2
271
     2
272
     2
273
     2
274
     3
340
11
275
     0
280
     0
281
     0
282
     0
283
     0
284
     8
285
     0
286
     0
287
     3
288
     0
  0
ENDTAB
  0
TABLE
  2
BLOCK_RECORD
  5
1
330
0
100
AcDbSymbolTable
 70
     1
  0
BLOCK_RECORD
  5
1F
330
1
100
AcDbSymbolTableRecord
100
AcDbBlockTableRecord
  2
*MODEL_SPACE
  0
BLOCK_RECORD
  5
1B
330
1
100
AcDbSymbolTableRecord
100
AcDbBlockTableRecord
  2
*PAPER_SPACE
  0
ENDTAB
  0
ENDSEC
  0
SECTION
  2
BLOCKS
  0
BLOCK
  5
20
330
1F
100
AcDbEntity
  8
0
100
AcDbBlockBegin
  2
*MODEL_SPACE
 70
     0
 10
0.0
 20
0.0
 30
0.0
  3
*MODEL_SPACE
  1

  0
ENDBLK
  5
21
330
1F
100
AcDbEntity
  8
0
100
AcDbBlockEnd
  0
BLOCK
  5
1C
330
1B
100
AcDbEntity
 67
     1
  8
0
100
AcDbBlockBegin
  2
*PAPER_SPACE
  1

  0
ENDBLK
  5
1D
330
1B
100
AcDbEntity
 67
     1
  8
0
100
AcDbBlockEnd
  0
ENDSEC
  0
SECTION
  2
ENTITIES
  0
LINE
  5
100
100
AcDbEntity
  8
Ebene_2
 62
7
100
AcDbLine
 10
-0.050397
 20
213.581746
 30
0.0
 11
10.028968
 21
210.003572
 31
0.0
  0
LINE
  5
101
100
AcDbEntity
  8
Ebene_2
 62
7
100
AcDbLine
 10
10.028968
 20
210.003572
 30
0.0
 11
20.108333
 21
206.123016
 31
0.0
  0
LINE
  5
102
100
AcDbEntity
  8
Ebene_2
 62
7
100
AcDbLine
 10
20.108333
 20
206.123016
 30
0.0
 11
30.137300
 21
202.242461
 31
0.0
  0
LINE
  5
103
100
AcDbEntity
  8
Ebene_2
 62
7
100
AcDbLine
 10
30.137300
 20
202.242461
 30
0.0
 11
40.216667
 21
197.958731
 31
0.0
  0
LINE
  5
104
100
AcDbEntity
  8
Ebene_2
 62
7
100
AcDbLine
 10
40.216667
 20
197.958731
 30
0.0
 11
49.943255
 21
193.826191
 31
0.0
  0
LINE
  5
105
100
AcDbEntity
  8
Ebene_2
 62
7
100
AcDbLine
 10
49.943255
 20
193.826191
 30
0.0
 11
60.022619
 21
189.340872
 31
0.0
  0
LINE
  5
106
100
AcDbEntity
  8
Ebene_2
 62
7
100
AcDbLine
 10
60.022619
 20
189.340872
 30
0.0
 11
70.051589
 21
184.805160
 31
0.0
  0
LINE
  5
107
100
AcDbEntity
  8
Ebene_2
 62
7
100
AcDbLine
 10
70.051589
 20
184.805160
 30
0.0
 11
80.030159
 21
179.715079
 31
0.0
  0
LINE
  5
108
100
AcDbEntity
  8
Ebene_2
 62
7
100
AcDbLine
 10
80.030159
 20
179.715079
 30
0.0
 11
90.059126
 21
174.574605
 31
0.0
  0
LINE
  5
109
100
AcDbEntity
  8
Ebene_2
 62
7
100
AcDbLine
 10
90.059126
 20
174.574605
 30
0.0
 11
100.037700
 21
168.829365
 31
0.0
  0
LINE
  5
10a
100
AcDbEntity
  8
Ebene_2
 62
7
100
AcDbLine
 10
100.037700
 20
168.829365
 30
0.0
 11
106.034922
 21
165.251191
 31
0.0
  0
LINE
  5
10b
100
AcDbEntity
  8
Ebene_2
 62
7
100
AcDbLine
 10
106.034922
 20
165.251191
 30
0.0
 11
112.082540
 21
161.068254
 31
0.0
  0
LINE
  5
10c
100
AcDbEntity
  8
Ebene_2
 62
7
100
AcDbLine
 10
112.082540
 20
161.068254
 30
0.0
 11
116.215081
 21
157.641272
 31
0.0
  0
LINE
  5
10d
100
AcDbEntity
  8
Ebene_2
 62
7
100
AcDbLine
 10
116.215081
 20
157.641272
 30
0.0
 11
118.130159
 21
155.826983
 31
0.0
  0
LINE
  5
10e
100
AcDbEntity
  8
Ebene_2
 62
7
100
AcDbLine
 10
118.130159
 20
155.826983
 30
0.0
 11
119.440477
 21
153.105557
 31
0.0
  0
LINE
  5
10f
100
AcDbEntity
  8
Ebene_2
 62
7
100
AcDbLine
 10
119.440477
 20
153.105557
 30
0.0
 11
120.146033
 21
150.384128
 31
0.0
  0
LINE
  5
110
100
AcDbEntity
  8
Ebene_2
 62
7
100
AcDbLine
 10
120.146033
 20
150.384128
 30
0.0
 11
119.742859
 21
147.158731
 31
0.0
  0
LINE
  5
111
100
AcDbEntity
  8
Ebene_2
 62
7
100
AcDbLine
 10
119.742859
 20
147.158731
 30
0.0
 11
118.079763
 21
143.782143
 31
0.0
  0
LINE
  5
112
100
AcDbEntity
  8
Ebene_2
 62
7
100
AcDbLine
 10
118.079763
 20
143.782143
 30
0.0
 11
115.963096
 21
141.111112
 31
0.0
  0
LINE
  5
113
100
AcDbEntity
  8
Ebene_2
 62
7
100
AcDbLine
 10
115.963096
 20
141.111112
 30
0.0
 11
112.284126
 21
137.684128
 31
0.0
  0
LINE
  5
114
100
AcDbEntity
  8
Ebene_2
 62
7
100
AcDbLine
 10
112.284126
 20
137.684128
 30
0.0
 11
108.101192
 21
134.156350
 31
0.0
  0
LINE
  5
115
100
AcDbEntity
  8
Ebene_2
 62
7
100
AcDbLine
 10
108.101192
 20
134.156350
 30
0.0
 11
100.289682
 21
129.015872
 31
0.0
  0
LINE
  5
116
100
AcDbEntity
  8
Ebene_2
 62
7
100
AcDbLine
 10
100.289682
 20
129.015872
 30
0.0
 11
90.159922
 21
122.867461
 31
0.0
  0
LINE
  5
117
100
AcDbEntity
  8
Ebene_2
 62
7
100
AcDbLine
 10
90.159922
 20
122.867461
 30
0.0
 11
80.030159
 21
117.323809
 31
0.0
  0
LINE
  5
118
100
AcDbEntity
  8
Ebene_2
 62
7
100
AcDbLine
 10
80.030159
 20
117.323809
 30
0.0
 11
70.101985
 21
112.233731
 31
0.0
  0
LINE
  5
119
100
AcDbEntity
  8
Ebene_2
 62
7
100
AcDbLine
 10
70.101985
 20
112.233731
 30
0.0
 11
60.173811
 21
107.647620
 31
0.0
  0
LINE
  5
11a
100
AcDbEntity
  8
Ebene_2
 62
7
100
AcDbLine
 10
60.173811
 20
107.647620
 30
0.0
 11
49.993652
 21
103.212698
 31
0.0
  0
LINE
  5
11b
100
AcDbEntity
  8
Ebene_2
 62
7
100
AcDbLine
 10
49.993652
 20
103.212698
 30
0.0
 11
40.115874
 21
99.029761
 31
0.0
  0
LINE
  5
11c
100
AcDbEntity
  8
Ebene_2
 62
7
100
AcDbLine
 10
40.115874
 20
99.029761
 30
0.0
 11
29.986111
 21
94.947620
 31
0.0
  0
LINE
  5
11d
100
AcDbEntity
  8
Ebene_2
 62
7
100
AcDbLine
 10
29.986111
 20
94.947620
 30
0.0
 11
20.057937
 21
90.915872
 31
0.0
  0
LINE
  5
11e
100
AcDbEntity
  8
Ebene_2
 62
7
100
AcDbLine
 10
20.057937
 20
90.915872
 30
0.0
 11
10.180159
 21
87.287302
 31
0.0
  0
LINE
  5
11f
100
AcDbEntity
  8
Ebene_2
 62
7
100
AcDbLine
 10
10.180159
 20
87.287302
 30
0.0
 11
0.100794
 21
83.658731
 31
0.0
  0
ENDSEC
  0
SECTION
  2
OBJECTS
  0
DICTIONARY
  5
C
330
0
100
AcDbDictionary
  3
ACAD_GROUP
350
D
  3
ACAD_MLINESTYLE
350
17
  0
DICTIONARY
  5
D
330
C
100
AcDbDictionary
  0
DICTIONARY
  5
1A
330
C
100
AcDbDictionary
  0
DICTIONARY
  5
17
330
C
100
AcDbDictionary
  3
STANDARD
350
18
  0
DICTIONARY
  5
19
330
C
100
AcDbDictionary
  0
ENDSEC
  0
EOF
