  0
SECTION
  2
HEADER
  9
$ACADVER
  1
AC1009
  9
$EXTMIN
 10
0.0
 20
0.0
 30
0.0
  9
$EXTMAX
 10
1000.0
 20
1000.0
 30
0.0
  9
$FILLMODE
 70
 0
  9
$SPLFRAME
 70
 1
  0
ENDSEC
  0
SECTION
  2
TABLES
  0
TABLE
  2
LAYER
 70
1
  0
LAYER
  2
0
 70
     0
 62
     7
  6
CONTINUOUS
  0
ENDTAB
  0
ENDSEC
  0
SECTION
  2
ENTITIES
  0
POLYLINE
  8
0
 62
     0
 66
     1
 10
0
 20
0
 30
0.0
 40
2.83465
 41
2.83465
  0
VERTEX
  8
0
 10
0.0520833
 20
10.4089
 30
0.0
 40
0.0393701
 41
0.0393701
  0
VERTEX
  8
0
 10
0.391601
 20
10.4134
 30
0.0
 40
0.0393701
 41
0.0393701
  0
VERTEX
  8
0
 10
0.78304
 20
10.4195
 30
0.0
 40
0.0393701
 41
0.0393701
  0
VERTEX
  8
0
 10
1.18148
 20
10.4231
 30
0.0
 40
0.0393701
 41
0.0393701
  0
VERTEX
  8
0
 10
1.56993
 20
10.4301
 30
0.0
 40
0.0393701
 41
0.0393701
  0
VERTEX
  8
0
 10
1.96382
 20
10.437
 30
0.0
 40
0.0393701
 41
0.0393701
  0
VERTEX
  8
0
 10
2.35667
 20
10.4331
 30
0.0
 40
0.0393701
 41
0.0393701
  0
VERTEX
  8
0
 10
2.75146
 20
10.4331
 30
0.0
 40
0.0393701
 41
0.0393701
  0
VERTEX
  8
0
 10
3.14333
 20
10.434
 30
0.0
 40
0.0393701
 41
0.0393701
  0
VERTEX
  8
0
 10
3.53819
 20
10.436
 30
0.0
 40
0.0393701
 41
0.0393701
  0
VERTEX
  8
0
 10
3.93104
 20
10.435
 30
0.0
 40
0.0393701
 41
0.0393701
  0
VERTEX
  8
0
 10
4.32688
 20
10.4281
 30
0.0
 40
0.0393701
 41
0.0393701
  0
VERTEX
  8
0
 10
4.72076
 20
10.4201
 30
0.0
 40
0.0393701
 41
0.0393701
  0
VERTEX
  8
0
 10
5.11361
 20
10.4112
 30
0.0
 40
0.0393701
 41
0.0393701
  0
VERTEX
  8
0
 10
5.50743
 20
10.3963
 30
0.0
 40
0.0393701
 41
0.0393701
  0
VERTEX
  8
0
 10
5.89931
 20
10.3824
 30
0.0
 40
0.0393701
 41
0.0393701
  0
VERTEX
  8
0
 10
6.29313
 20
10.3695
 30
0.0
 40
0.0393701
 41
0.0393701
  0
VERTEX
  8
0
 10
6.68799
 20
10.3467
 30
0.0
 40
0.0393701
 41
0.0393701
  0
VERTEX
  8
0
 10
7.08187
 20
10.3249
 30
0.0
 40
0.0393701
 41
0.0393701
  0
VERTEX
  8
0
 10
7.47667
 20
10.3021
 30
0.0
 40
0.0393701
 41
0.0393701
  0
VERTEX
  8
0
 10
7.86854
 20
10.2713
 30
0.0
 40
0.0393701
 41
0.0393701
  0
VERTEX
  8
0
 10
8.26437
 20
10.2456
 30
0.0
 40
0.0393701
 41
0.0393701
  0
SEQEND
 8
0
  0
POLYLINE
  8
0
 62
     0
 66
     1
 10
0
 20
0
 30
0.0
 40
2.83465
 41
2.83465
  0
VERTEX
  8
0
 10
0.00981988
 20
1.39947
 30
0.0
 40
0.0393701
 41
0.0393701
  0
VERTEX
  8
0
 10
0.397026
 20
1.38406
 30
0.0
 40
0.0393701
 41
0.0393701
  0
VERTEX
  8
0
 10
0.785699
 20
1.3693
 30
0.0
 40
0.0393701
 41
0.0393701
  0
VERTEX
  8
0
 10
0.82921
 20
1.36757
 30
0.0
 40
0.0393701
 41
0.0393701
  0
VERTEX
  8
0
 10
0.934842
 20
1.36344
 30
0.0
 40
0.0393701
 41
0.0393701
  0
VERTEX
  8
0
 10
1.06516
 20
1.35856
 30
0.0
 40
0.0393701
 41
0.0393701
  0
VERTEX
  8
0
 10
1.18273
 20
1.3546
 30
0.0
 40
0.0393701
 41
0.0393701
  0
VERTEX
  8
0
 10
1.29948
 20
1.35167
 30
0.0
 40
0.0393701
 41
0.0393701
  0
VERTEX
  8
0
 10
1.42811
 20
1.34896
 30
0.0
 40
0.0393701
 41
0.0393701
  0
VERTEX
  8
0
 10
1.53207
 20
1.34701
 30
0.0
 40
0.0393701
 41
0.0393701
  0
VERTEX
  8
0
 10
1.57487
 20
1.34619
 30
0.0
 40
0.0393701
 41
0.0393701
  0
VERTEX
  8
0
 10
1.96978
 20
1.33778
 30
0.0
 40
0.0393701
 41
0.0393701
  0
VERTEX
  8
0
 10
2.36404
 20
1.33778
 30
0.0
 40
0.0393701
 41
0.0393701
  0
VERTEX
  8
0
 10
2.75689
 20
1.34478
 30
0.0
 40
0.0393701
 41
0.0393701
  0
VERTEX
  8
0
 10
3.15039
 20
1.34901
 30
0.0
 40
0.0393701
 41
0.0393701
  0
VERTEX
  8
0
 10
3.54536
 20
1.3476
 30
0.0
 40
0.0393701
 41
0.0393701
  0
VERTEX
  8
0
 10
3.93397
 20
1.35037
 30
0.0
 40
0.0393701
 41
0.0393701
  0
VERTEX
  8
0
 10
4.33035
 20
1.35319
 30
0.0
 40
0.0393701
 41
0.0393701
  0
VERTEX
  8
0
 10
4.72179
 20
1.35883
 30
0.0
 40
0.0393701
 41
0.0393701
  0
VERTEX
  8
0
 10
5.11669
 20
1.37071
 30
0.0
 40
0.0393701
 41
0.0393701
  0
VERTEX
  8
0
 10
5.50814
 20
1.38194
 30
0.0
 40
0.0393701
 41
0.0393701
  0
VERTEX
  8
0
 10
5.90375
 20
1.39811
 30
0.0
 40
0.0393701
 41
0.0393701
  0
VERTEX
  8
0
 10
6.30013
 20
1.41422
 30
0.0
 40
0.0393701
 41
0.0393701
  0
VERTEX
  8
0
 10
6.69368
 20
1.43246
 30
0.0
 40
0.0393701
 41
0.0393701
  0
VERTEX
  8
0
 10
7.08789
 20
1.45139
 30
0.0
 40
0.0393701
 41
0.0393701
  0
VERTEX
  8
0
 10
7.48215
 20
1.46897
 30
0.0
 40
0.0393701
 41
0.0393701
  0
VERTEX
  8
0
 10
7.875
 20
1.49278
 30
0.0
 40
0.0393701
 41
0.0393701
  0
VERTEX
  8
0
 10
8.19629
 20
1.50825
 30
0.0
 40
0.0393701
 41
0.0393701
  0
SEQEND
 8
0
  0
ENDSEC
  0
EOF
