  0
SECTION
  2
HEADER
  9
$ACADVER
  1
AC1014
  9
$HANDSEED
  5
FFFF
  9
$MEASUREMENT
 70
     1
  0
ENDSEC
  0
SECTION
  2
TABLES
  0
TABLE
  2
VPORT
  5
8
330
0
100
AcDbSymbolTable
 70
     4
  0
VPORT
  5
2E
330
8
100
AcDbSymbolTableRecord
100
AcDbViewportTableRecord
  2
*ACTIVE
 70
     0
 10
0.0
 20
0.0
 11
1.0
 21
1.0
 12
210.0
 22
148.5
 13
0.0
 23
0.0
 14
10.0
 24
10.0
 15
10.0
 25
10.0
 16
0.0
 26
0.0
 36
1.0
 17
0.0
 27
0.0
 37
0.0
 40
341.0
 41
1.24
 42
50.0
 43
0.0
 44
0.0
 50
0.0
 51
0.0
 71
     0
 72
   100
 73
     1
 74
     3
 75
     0
 76
     0
 77
     0
 78
     0
  0
ENDTAB
  0
TABLE
  2
LTYPE
  5
5
330
0
100
AcDbSymbolTable
 70
     1
  0
LTYPE
  5
14
330
5
100
AcDbSymbolTableRecord
100
AcDbLinetypeTableRecord
  2
BYBLOCK
 70
     0
  3

 72
    65
 73
     0
 40
0.0
  0
LTYPE
  5
15
330
5
100
AcDbSymbolTableRecord
100
AcDbLinetypeTableRecord
  2
BYLAYER
 70
     0
  3

 72
    65
 73
     0
 40
0.0
  0
LTYPE
  5
16
330
5
100
AcDbSymbolTableRecord
100
AcDbLinetypeTableRecord
  2
CONTINUOUS
 70
     0
  3
Solid line
 72
    65
 73
     0
 40
0.0
  0
ENDTAB
  0
TABLE
  2
LAYER
  5
2
100
AcDbSymbolTable
 70
3
  0
LAYER
  5
50
100
AcDbSymbolTableRecord
100
AcDbLayerTableRecord
  2
0
 70
0
  6
CONTINUOUS
  0
LAYER
  5
51
100
AcDbSymbolTableRecord
100
AcDbLayerTableRecord
  2
Ebene_1
 70
0
  6
CONTINUOUS
  0
LAYER
  5
52
100
AcDbSymbolTableRecord
100
AcDbLayerTableRecord
  2
Ebene_2
 70
0
  6
CONTINUOUS
  0
ENDTAB
  0
TABLE
  2
STYLE
  5
3
330
0
100
AcDbSymbolTable
 70
     1
  0
STYLE
  5
11
330
3
100
AcDbSymbolTableRecord
100
AcDbTextStyleTableRecord
  2
STANDARD
 70
     0
 40
0.0
 41
1.0
 50
0.0
 71
     0
 42
2.5
  3
txt
  4

  0
ENDTAB
  0
TABLE
  2
VIEW
  5
6
330
0
100
AcDbSymbolTable
 70
     0
  0
ENDTAB
  0
TABLE
  2
UCS
  5
7
330
0
100
AcDbSymbolTable
 70
     0
  0
ENDTAB
  0
TABLE
  2
APPID
  5
9
330
0
100
AcDbSymbolTable
 70
     2
  0
APPID
  5
12
330
9
100
AcDbSymbolTableRecord
100
AcDbRegAppTableRecord
  2
ACAD
 70
     0
  0
ENDTAB
  0
TABLE
  2
DIMSTYLE
  5
A
330
0
100
AcDbSymbolTable
 70
     1
  0
DIMSTYLE
105
27
330
A
100
AcDbSymbolTableRecord
100
AcDbDimStyleTableRecord
  2
ISO-25
 70
     0
  3

  4

  5

  6

  7

 40
1.0
 41
2.5
 42
0.625
 43
3.75
 44
1.25
 45
0.0
 46
0.0
 47
0.0
 48
0.0
140
2.5
141
2.5
142
0.0
143
0.03937007874016
144
1.0
145
0.0
146
1.0
147
0.625
 71
     0
 72
     0
 73
     0
 74
     0
 75
     0
 76
     0
 77
     1
 78
     8
170
     0
171
     3
172
     1
173
     0
174
     0
175
     0
176
     0
177
     0
178
     0
270
     2
271
     2
272
     2
273
     2
274
     3
340
11
275
     0
280
     0
281
     0
282
     0
283
     0
284
     8
285
     0
286
     0
287
     3
288
     0
  0
ENDTAB
  0
TABLE
  2
BLOCK_RECORD
  5
1
330
0
100
AcDbSymbolTable
 70
     1
  0
BLOCK_RECORD
  5
1F
330
1
100
AcDbSymbolTableRecord
100
AcDbBlockTableRecord
  2
*MODEL_SPACE
  0
BLOCK_RECORD
  5
1B
330
1
100
AcDbSymbolTableRecord
100
AcDbBlockTableRecord
  2
*PAPER_SPACE
  0
ENDTAB
  0
ENDSEC
  0
SECTION
  2
BLOCKS
  0
BLOCK
  5
20
330
1F
100
AcDbEntity
  8
0
100
AcDbBlockBegin
  2
*MODEL_SPACE
 70
     0
 10
0.0
 20
0.0
 30
0.0
  3
*MODEL_SPACE
  1

  0
ENDBLK
  5
21
330
1F
100
AcDbEntity
  8
0
100
AcDbBlockEnd
  0
BLOCK
  5
1C
330
1B
100
AcDbEntity
 67
     1
  8
0
100
AcDbBlockBegin
  2
*PAPER_SPACE
  1

  0
ENDBLK
  5
1D
330
1B
100
AcDbEntity
 67
     1
  8
0
100
AcDbBlockEnd
  0
ENDSEC
  0
SECTION
  2
ENTITIES
  0
LINE
  5
100
100
AcDbEntity
  8
Ebene_2
 62
7
100
AcDbLine
 10
1.322391
 20
264.384628
 30
0.0
 11
9.946287
 21
264.500184
 31
0.0
  0
LINE
  5
101
100
AcDbEntity
  8
Ebene_2
 62
7
100
AcDbLine
 10
9.946287
 20
264.500184
 30
0.0
 11
19.888714
 21
264.654957
 31
0.0
  0
LINE
  5
102
100
AcDbEntity
  8
Ebene_2
 62
7
100
AcDbLine
 10
19.888714
 20
264.654957
 30
0.0
 11
30.009321
 21
264.745313
 31
0.0
  0
LINE
  5
103
100
AcDbEntity
  8
Ebene_2
 62
7
100
AcDbLine
 10
30.009321
 20
264.745313
 30
0.0
 11
39.876397
 21
264.922964
 31
0.0
  0
LINE
  5
104
100
AcDbEntity
  8
Ebene_2
 62
7
100
AcDbLine
 10
39.876397
 20
264.922964
 30
0.0
 11
49.880167
 21
265.099353
 31
0.0
  0
LINE
  5
105
100
AcDbEntity
  8
Ebene_2
 62
7
100
AcDbLine
 10
49.880167
 20
265.099353
 30
0.0
 11
59.858741
 21
264.998557
 31
0.0
  0
LINE
  5
106
100
AcDbEntity
  8
Ebene_2
 62
7
100
AcDbLine
 10
59.858741
 20
264.998557
 30
0.0
 11
69.887708
 21
264.998557
 31
0.0
  0
LINE
  5
107
100
AcDbEntity
  8
Ebene_2
 62
7
100
AcDbLine
 10
69.887708
 20
264.998557
 30
0.0
 11
79.841082
 21
265.023759
 31
0.0
  0
LINE
  5
108
100
AcDbEntity
  8
Ebene_2
 62
7
100
AcDbLine
 10
79.841082
 20
265.023759
 30
0.0
 11
89.870049
 21
265.074156
 31
0.0
  0
LINE
  5
109
100
AcDbEntity
  8
Ebene_2
 62
7
100
AcDbLine
 10
89.870049
 20
265.074156
 30
0.0
 11
99.848622
 21
265.048953
 31
0.0
  0
LINE
  5
10a
100
AcDbEntity
  8
Ebene_2
 62
7
100
AcDbLine
 10
99.848622
 20
265.048953
 30
0.0
 11
109.902789
 21
264.872567
 31
0.0
  0
LINE
  5
10b
100
AcDbEntity
  8
Ebene_2
 62
7
100
AcDbLine
 10
109.902789
 20
264.872567
 30
0.0
 11
119.906556
 21
264.670979
 31
0.0
  0
LINE
  5
10c
100
AcDbEntity
  8
Ebene_2
 62
7
100
AcDbLine
 10
119.906556
 20
264.670979
 30
0.0
 11
129.885130
 21
264.444193
 31
0.0
  0
LINE
  5
10d
100
AcDbEntity
  8
Ebene_2
 62
7
100
AcDbLine
 10
129.885130
 20
264.444193
 30
0.0
 11
139.888900
 21
264.066216
 31
0.0
  0
LINE
  5
10e
100
AcDbEntity
  8
Ebene_2
 62
7
100
AcDbLine
 10
139.888900
 20
264.066216
 30
0.0
 11
149.842271
 21
263.713438
 31
0.0
  0
LINE
  5
10f
100
AcDbEntity
  8
Ebene_2
 62
7
100
AcDbLine
 10
149.842271
 20
263.713438
 30
0.0
 11
159.846041
 21
263.385860
 31
0.0
  0
LINE
  5
110
100
AcDbEntity
  8
Ebene_2
 62
7
100
AcDbLine
 10
159.846041
 20
263.385860
 30
0.0
 11
169.875011
 21
262.806297
 31
0.0
  0
LINE
  5
111
100
AcDbEntity
  8
Ebene_2
 62
7
100
AcDbLine
 10
169.875011
 20
262.806297
 30
0.0
 11
179.878778
 21
262.251931
 31
0.0
  0
LINE
  5
112
100
AcDbEntity
  8
Ebene_2
 62
7
100
AcDbLine
 10
179.878778
 20
262.251931
 30
0.0
 11
189.907748
 21
261.672368
 31
0.0
  0
LINE
  5
113
100
AcDbEntity
  8
Ebene_2
 62
7
100
AcDbLine
 10
189.907748
 20
261.672368
 30
0.0
 11
199.861122
 21
260.891216
 31
0.0
  0
LINE
  5
114
100
AcDbEntity
  8
Ebene_2
 62
7
100
AcDbLine
 10
199.861122
 20
260.891216
 30
0.0
 11
209.915289
 21
260.236057
 31
0.0
  0
LINE
  5
115
100
AcDbEntity
  8
Ebene_2
 62
7
100
AcDbLine
 10
0.249452
 20
35.546847
 30
0.0
 11
10.084970
 21
35.154852
 31
0.0
  0
LINE
  5
116
100
AcDbEntity
  8
Ebene_2
 62
7
100
AcDbLine
 10
10.084970
 20
35.154852
 30
0.0
 11
19.956125
 21
34.780673
 31
0.0
  0
SPLINE
  5
117
100
AcDbEntity
  8
Ebene_2
 62
7
100
AcDbSpline
 70
8
 71
3
 72
8
 73
4
 74
0
 40
0
 40
0
 40
0
 40
0
 40
1
 40
1
 40
1
 40
1
 10
19.956125
 20
34.780673
 30
0.0
 10
19.956125
 20
34.780673
 30
0.0
 10
26.700118
 20
34.504329
 30
0.0
 10
30.041094
 20
34.406497
 30
0.0
  0
SPLINE
  5
118
100
AcDbEntity
  8
Ebene_2
 62
7
100
AcDbSpline
 70
8
 71
3
 72
8
 73
4
 74
0
 40
0
 40
0
 40
0
 40
0
 40
1
 40
1
 40
1
 40
1
 10
30.041094
 20
34.406497
 30
0.0
 10
33.382069
 20
34.308665
 30
0.0
 10
40.001340
 20
34.192683
 30
0.0
 10
40.001340
 20
34.192683
 30
0.0
  0
LINE
  5
119
100
AcDbEntity
  8
Ebene_2
 62
7
100
AcDbLine
 10
40.001340
 20
34.192683
 30
0.0
 11
50.032855
 21
33.978865
 31
0.0
  0
LINE
  5
11a
100
AcDbEntity
  8
Ebene_2
 62
7
100
AcDbLine
 10
50.032855
 20
33.978865
 30
0.0
 11
60.046554
 21
33.978865
 31
0.0
  0
LINE
  5
11b
100
AcDbEntity
  8
Ebene_2
 62
7
100
AcDbLine
 10
60.046554
 20
33.978865
 30
0.0
 11
70.024617
 21
34.157046
 31
0.0
  0
LINE
  5
11c
100
AcDbEntity
  8
Ebene_2
 62
7
100
AcDbLine
 10
70.024617
 20
34.157046
 30
0.0
 11
80.020496
 21
34.263952
 31
0.0
  0
LINE
  5
11d
100
AcDbEntity
  8
Ebene_2
 62
7
100
AcDbLine
 10
80.020496
 20
34.263952
 30
0.0
 11
90.052014
 21
34.228319
 31
0.0
  0
LINE
  5
11e
100
AcDbEntity
  8
Ebene_2
 62
7
100
AcDbLine
 10
90.052014
 20
34.228319
 30
0.0
 11
99.923168
 21
34.299591
 31
0.0
  0
LINE
  5
11f
100
AcDbEntity
  8
Ebene_2
 62
7
100
AcDbLine
 10
99.923168
 20
34.299591
 30
0.0
 11
109.990320
 21
34.370852
 31
0.0
  0
LINE
  5
120
100
AcDbEntity
  8
Ebene_2
 62
7
100
AcDbLine
 10
109.990320
 20
34.370852
 30
0.0
 11
119.932746
 21
34.513397
 31
0.0
  0
LINE
  5
121
100
AcDbEntity
  8
Ebene_2
 62
7
100
AcDbLine
 10
119.932746
 20
34.513397
 30
0.0
 11
129.964265
 21
34.816301
 31
0.0
  0
LINE
  5
122
100
AcDbEntity
  8
Ebene_2
 62
7
100
AcDbLine
 10
129.964265
 20
34.816301
 30
0.0
 11
139.906688
 21
35.101390
 31
0.0
  0
LINE
  5
123
100
AcDbEntity
  8
Ebene_2
 62
7
100
AcDbLine
 10
139.906688
 20
35.101390
 30
0.0
 11
149.956023
 21
35.511202
 31
0.0
  0
LINE
  5
124
100
AcDbEntity
  8
Ebene_2
 62
7
100
AcDbLine
 10
149.956023
 20
35.511202
 30
0.0
 11
160.023175
 21
35.921017
 31
0.0
  0
LINE
  5
125
100
AcDbEntity
  8
Ebene_2
 62
7
100
AcDbLine
 10
160.023175
 20
35.921017
 30
0.0
 11
170.019057
 21
36.384282
 31
0.0
  0
LINE
  5
126
100
AcDbEntity
  8
Ebene_2
 62
7
100
AcDbLine
 10
170.019057
 20
36.384282
 30
0.0
 11
180.032753
 21
36.865369
 31
0.0
  0
LINE
  5
127
100
AcDbEntity
  8
Ebene_2
 62
7
100
AcDbLine
 10
180.032753
 20
36.865369
 30
0.0
 11
190.046452
 21
37.310818
 31
0.0
  0
LINE
  5
128
100
AcDbEntity
  8
Ebene_2
 62
7
100
AcDbLine
 10
190.046452
 20
37.310818
 30
0.0
 11
200.024515
 21
37.916627
 31
0.0
  0
LINE
  5
129
100
AcDbEntity
  8
Ebene_2
 62
7
100
AcDbLine
 10
200.024515
 20
37.916627
 30
0.0
 11
208.185145
 21
38.308623
 31
0.0
  0
LINE
  5
12a
100
AcDbEntity
  8
Ebene_2
 62
7
100
AcDbLine
 10
208.185145
 20
38.308623
 30
0.0
 11
208.185145
 21
38.308623
 31
0.0
  0
ENDSEC
  0
SECTION
  2
OBJECTS
  0
DICTIONARY
  5
C
330
0
100
AcDbDictionary
  3
ACAD_GROUP
350
D
  3
ACAD_MLINESTYLE
350
17
  0
DICTIONARY
  5
D
330
C
100
AcDbDictionary
  0
DICTIONARY
  5
1A
330
C
100
AcDbDictionary
  0
DICTIONARY
  5
17
330
C
100
AcDbDictionary
  3
STANDARD
350
18
  0
DICTIONARY
  5
19
330
C
100
AcDbDictionary
  0
ENDSEC
  0
EOF
