  0
SECTION
  2
HEADER
  9
$ACADVER
  1
AC1014
  9
$HANDSEED
  5
FFFF
  9
$MEASUREMENT
 70
     1
  0
ENDSEC
  0
SECTION
  2
TABLES
  0
TABLE
  2
VPORT
  5
8
330
0
100
AcDbSymbolTable
 70
     4
  0
VPORT
  5
2E
330
8
100
AcDbSymbolTableRecord
100
AcDbViewportTableRecord
  2
*ACTIVE
 70
     0
 10
0.0
 20
0.0
 11
1.0
 21
1.0
 12
210.0
 22
148.5
 13
0.0
 23
0.0
 14
10.0
 24
10.0
 15
10.0
 25
10.0
 16
0.0
 26
0.0
 36
1.0
 17
0.0
 27
0.0
 37
0.0
 40
341.0
 41
1.24
 42
50.0
 43
0.0
 44
0.0
 50
0.0
 51
0.0
 71
     0
 72
   100
 73
     1
 74
     3
 75
     0
 76
     0
 77
     0
 78
     0
  0
ENDTAB
  0
TABLE
  2
LTYPE
  5
5
330
0
100
AcDbSymbolTable
 70
     1
  0
LTYPE
  5
14
330
5
100
AcDbSymbolTableRecord
100
AcDbLinetypeTableRecord
  2
BYBLOCK
 70
     0
  3

 72
    65
 73
     0
 40
0.0
  0
LTYPE
  5
15
330
5
100
AcDbSymbolTableRecord
100
AcDbLinetypeTableRecord
  2
BYLAYER
 70
     0
  3

 72
    65
 73
     0
 40
0.0
  0
LTYPE
  5
16
330
5
100
AcDbSymbolTableRecord
100
AcDbLinetypeTableRecord
  2
CONTINUOUS
 70
     0
  3
Solid line
 72
    65
 73
     0
 40
0.0
  0
ENDTAB
  0
TABLE
  2
LAYER
  5
2
100
AcDbSymbolTable
 70
3
  0
LAYER
  5
50
100
AcDbSymbolTableRecord
100
AcDbLayerTableRecord
  2
0
 70
0
  6
CONTINUOUS
  0
LAYER
  5
51
100
AcDbSymbolTableRecord
100
AcDbLayerTableRecord
  2
Ebene_1
 70
0
  6
CONTINUOUS
  0
LAYER
  5
52
100
AcDbSymbolTableRecord
100
AcDbLayerTableRecord
  2
bezier
 70
0
  6
CONTINUOUS
  0
ENDTAB
  0
TABLE
  2
STYLE
  5
3
330
0
100
AcDbSymbolTable
 70
     1
  0
STYLE
  5
11
330
3
100
AcDbSymbolTableRecord
100
AcDbTextStyleTableRecord
  2
STANDARD
 70
     0
 40
0.0
 41
1.0
 50
0.0
 71
     0
 42
2.5
  3
txt
  4

  0
ENDTAB
  0
TABLE
  2
VIEW
  5
6
330
0
100
AcDbSymbolTable
 70
     0
  0
ENDTAB
  0
TABLE
  2
UCS
  5
7
330
0
100
AcDbSymbolTable
 70
     0
  0
ENDTAB
  0
TABLE
  2
APPID
  5
9
330
0
100
AcDbSymbolTable
 70
     2
  0
APPID
  5
12
330
9
100
AcDbSymbolTableRecord
100
AcDbRegAppTableRecord
  2
ACAD
 70
     0
  0
ENDTAB
  0
TABLE
  2
DIMSTYLE
  5
A
330
0
100
AcDbSymbolTable
 70
     1
  0
DIMSTYLE
105
27
330
A
100
AcDbSymbolTableRecord
100
AcDbDimStyleTableRecord
  2
ISO-25
 70
     0
  3

  4

  5

  6

  7

 40
1.0
 41
2.5
 42
0.625
 43
3.75
 44
1.25
 45
0.0
 46
0.0
 47
0.0
 48
0.0
140
2.5
141
2.5
142
0.0
143
0.03937007874016
144
1.0
145
0.0
146
1.0
147
0.625
 71
     0
 72
     0
 73
     0
 74
     0
 75
     0
 76
     0
 77
     1
 78
     8
170
     0
171
     3
172
     1
173
     0
174
     0
175
     0
176
     0
177
     0
178
     0
270
     2
271
     2
272
     2
273
     2
274
     3
340
11
275
     0
280
     0
281
     0
282
     0
283
     0
284
     8
285
     0
286
     0
287
     3
288
     0
  0
ENDTAB
  0
TABLE
  2
BLOCK_RECORD
  5
1
330
0
100
AcDbSymbolTable
 70
     1
  0
BLOCK_RECORD
  5
1F
330
1
100
AcDbSymbolTableRecord
100
AcDbBlockTableRecord
  2
*MODEL_SPACE
  0
BLOCK_RECORD
  5
1B
330
1
100
AcDbSymbolTableRecord
100
AcDbBlockTableRecord
  2
*PAPER_SPACE
  0
ENDTAB
  0
ENDSEC
  0
SECTION
  2
BLOCKS
  0
BLOCK
  5
20
330
1F
100
AcDbEntity
  8
0
100
AcDbBlockBegin
  2
*MODEL_SPACE
 70
     0
 10
0.0
 20
0.0
 30
0.0
  3
*MODEL_SPACE
  1

  0
ENDBLK
  5
21
330
1F
100
AcDbEntity
  8
0
100
AcDbBlockEnd
  0
BLOCK
  5
1C
330
1B
100
AcDbEntity
 67
     1
  8
0
100
AcDbBlockBegin
  2
*PAPER_SPACE
  1

  0
ENDBLK
  5
1D
330
1B
100
AcDbEntity
 67
     1
  8
0
100
AcDbBlockEnd
  0
ENDSEC
  0
SECTION
  2
ENTITIES
  0
LINE
  5
100
100
AcDbEntity
  8
bezier
 62
7
100
AcDbLine
 10
1.959977
 20
262.209225
 30
0.0
 11
10.156242
 21
261.817230
 31
0.0
  0
LINE
  5
101
100
AcDbEntity
  8
bezier
 62
7
100
AcDbLine
 10
10.156242
 20
261.817230
 30
0.0
 11
19.884853
 21
261.211420
 31
0.0
  0
LINE
  5
102
100
AcDbEntity
  8
bezier
 62
7
100
AcDbLine
 10
19.884853
 20
261.211420
 30
0.0
 11
30.326183
 21
260.534335
 31
0.0
  0
LINE
  5
103
100
AcDbEntity
  8
bezier
 62
7
100
AcDbLine
 10
30.326183
 20
260.534335
 30
0.0
 11
40.054792
 21
259.857253
 31
0.0
  0
LINE
  5
104
100
AcDbEntity
  8
bezier
 62
7
100
AcDbLine
 10
40.054792
 20
259.857253
 30
0.0
 11
50.175400
 21
259.001989
 31
0.0
  0
LINE
  5
105
100
AcDbEntity
  8
bezier
 62
7
100
AcDbLine
 10
50.175400
 20
259.001989
 30
0.0
 11
60.296004
 21
258.039821
 31
0.0
  0
LINE
  5
106
100
AcDbEntity
  8
bezier
 62
7
100
AcDbLine
 10
60.296004
 20
258.039821
 30
0.0
 11
70.274067
 21
257.006379
 31
0.0
  0
LINE
  5
107
100
AcDbEntity
  8
bezier
 62
7
100
AcDbLine
 10
70.274067
 20
257.006379
 30
0.0
 11
80.109588
 21
256.151116
 31
0.0
  0
LINE
  5
108
100
AcDbEntity
  8
bezier
 62
7
100
AcDbLine
 10
80.109588
 20
256.151116
 30
0.0
 11
90.087648
 21
255.153308
 31
0.0
  0
LINE
  5
109
100
AcDbEntity
  8
bezier
 62
7
100
AcDbLine
 10
90.087648
 20
255.153308
 30
0.0
 11
100.350800
 21
254.084231
 31
0.0
  0
LINE
  5
10a
100
AcDbEntity
  8
bezier
 62
7
100
AcDbLine
 10
100.350800
 20
254.084231
 30
0.0
 11
110.186318
 21
252.872608
 31
0.0
  0
LINE
  5
10b
100
AcDbEntity
  8
bezier
 62
7
100
AcDbLine
 10
110.186318
 20
252.872608
 30
0.0
 11
120.413831
 21
251.447172
 31
0.0
  0
LINE
  5
10c
100
AcDbEntity
  8
bezier
 62
7
100
AcDbLine
 10
120.413831
 20
251.447172
 30
0.0
 11
130.106804
 21
249.950462
 31
0.0
  0
LINE
  5
10d
100
AcDbEntity
  8
bezier
 62
7
100
AcDbLine
 10
130.106804
 20
249.950462
 30
0.0
 11
140.120505
 21
248.204300
 31
0.0
  0
LINE
  5
10e
100
AcDbEntity
  8
bezier
 62
7
100
AcDbLine
 10
140.120505
 20
248.204300
 30
0.0
 11
150.383655
 21
246.315595
 31
0.0
  0
LINE
  5
10f
100
AcDbEntity
  8
bezier
 62
7
100
AcDbLine
 10
150.383655
 20
246.315595
 30
0.0
 11
160.076628
 21
244.319985
 31
0.0
  0
LINE
  5
110
100
AcDbEntity
  8
bezier
 62
7
100
AcDbLine
 10
160.076628
 20
244.319985
 30
0.0
 11
180.389112
 21
239.722949
 31
0.0
  0
LINE
  5
111
100
AcDbEntity
  8
bezier
 62
7
100
AcDbLine
 10
180.389112
 20
239.722949
 30
0.0
 11
190.153361
 21
237.335341
 31
0.0
  0
LINE
  5
112
100
AcDbEntity
  8
bezier
 62
7
100
AcDbLine
 10
190.153361
 20
237.335341
 30
0.0
 11
200.523416
 21
234.627009
 31
0.0
  0
LINE
  5
113
100
AcDbEntity
  8
bezier
 62
7
100
AcDbLine
 10
200.523416
 20
234.627009
 30
0.0
 11
210.252028
 21
231.918678
 31
0.0
  0
LINE
  5
114
100
AcDbEntity
  8
bezier
 62
7
100
AcDbLine
 10
210.252028
 20
231.918678
 30
0.0
 11
210.252028
 21
231.918678
 31
0.0
  0
LINE
  5
115
100
AcDbEntity
  8
bezier
 62
7
100
AcDbLine
 10
0.890898
 20
39.965705
 30
0.0
 11
10.049334
 21
40.553698
 31
0.0
  0
LINE
  5
116
100
AcDbEntity
  8
bezier
 62
7
100
AcDbLine
 10
10.049334
 20
40.553698
 30
0.0
 11
20.027397
 21
41.373322
 31
0.0
  0
LINE
  5
117
100
AcDbEntity
  8
bezier
 62
7
100
AcDbLine
 10
20.027397
 20
41.373322
 30
0.0
 11
30.066293
 21
42.176399
 31
0.0
  0
LINE
  5
118
100
AcDbEntity
  8
bezier
 62
7
100
AcDbLine
 10
30.066293
 20
42.176399
 30
0.0
 11
40.036976
 21
43.190757
 31
0.0
  0
LINE
  5
119
100
AcDbEntity
  8
bezier
 62
7
100
AcDbLine
 10
40.036976
 20
43.190757
 30
0.0
 11
49.932062
 21
44.093882
 31
0.0
  0
LINE
  5
11a
100
AcDbEntity
  8
bezier
 62
7
100
AcDbLine
 10
49.932062
 20
44.093882
 30
0.0
 11
60.028737
 21
45.257639
 31
0.0
  0
LINE
  5
11b
100
AcDbEntity
  8
bezier
 62
7
100
AcDbLine
 10
60.028737
 20
45.257639
 30
0.0
 11
70.024617
 21
46.415809
 31
0.0
  0
LINE
  5
11c
100
AcDbEntity
  8
bezier
 62
7
100
AcDbLine
 10
70.024617
 20
46.415809
 30
0.0
 11
80.056132
 21
47.716520
 31
0.0
  0
LINE
  5
11d
100
AcDbEntity
  8
bezier
 62
7
100
AcDbLine
 10
80.056132
 20
47.716520
 30
0.0
 11
90.034195
 21
49.035048
 31
0.0
  0
LINE
  5
11e
100
AcDbEntity
  8
bezier
 62
7
100
AcDbLine
 10
90.034195
 20
49.035048
 30
0.0
 11
99.994441
 21
50.335760
 31
0.0
  0
LINE
  5
11f
100
AcDbEntity
  8
bezier
 62
7
100
AcDbLine
 10
99.994441
 20
50.335760
 30
0.0
 11
110.025956
 21
51.636474
 31
0.0
  0
LINE
  5
120
100
AcDbEntity
  8
bezier
 62
7
100
AcDbLine
 10
110.025956
 20
51.636474
 30
0.0
 11
120.021835
 21
52.848094
 31
0.0
  0
LINE
  5
121
100
AcDbEntity
  8
bezier
 62
7
100
AcDbLine
 10
120.021835
 20
52.848094
 30
0.0
 11
130.053354
 21
54.362622
 31
0.0
  0
LINE
  5
122
100
AcDbEntity
  8
bezier
 62
7
100
AcDbLine
 10
130.053354
 20
54.362622
 30
0.0
 11
140.031414
 21
56.019693
 31
0.0
  0
LINE
  5
123
100
AcDbEntity
  8
bezier
 62
7
100
AcDbLine
 10
140.031414
 20
56.019693
 30
0.0
 11
150.027296
 21
57.730219
 31
0.0
  0
LINE
  5
124
100
AcDbEntity
  8
bezier
 62
7
100
AcDbLine
 10
150.027296
 20
57.730219
 30
0.0
 11
160.023175
 21
59.743649
 31
0.0
  0
LINE
  5
125
100
AcDbEntity
  8
bezier
 62
7
100
AcDbLine
 10
160.023175
 20
59.743649
 30
0.0
 11
170.019057
 21
61.876213
 31
0.0
  0
LINE
  5
126
100
AcDbEntity
  8
bezier
 62
7
100
AcDbLine
 10
170.019057
 20
61.876213
 30
0.0
 11
180.032753
 21
64.272469
 31
0.0
  0
LINE
  5
127
100
AcDbEntity
  8
bezier
 62
7
100
AcDbLine
 10
180.032753
 20
64.272469
 30
0.0
 11
190.010816
 21
66.710474
 31
0.0
  0
LINE
  5
128
100
AcDbEntity
  8
bezier
 62
7
100
AcDbLine
 10
190.010816
 20
66.710474
 30
0.0
 11
199.754713
 21
69.386228
 31
0.0
  0
LINE
  5
129
100
AcDbEntity
  8
bezier
 62
7
100
AcDbLine
 10
199.754713
 20
69.386228
 30
0.0
 11
208.880044
 21
72.323134
 31
0.0
  0
ENDSEC
  0
SECTION
  2
OBJECTS
  0
DICTIONARY
  5
C
330
0
100
AcDbDictionary
  3
ACAD_GROUP
350
D
  3
ACAD_MLINESTYLE
350
17
  0
DICTIONARY
  5
D
330
C
100
AcDbDictionary
  0
DICTIONARY
  5
1A
330
C
100
AcDbDictionary
  0
DICTIONARY
  5
17
330
C
100
AcDbDictionary
  3
STANDARD
350
18
  0
DICTIONARY
  5
19
330
C
100
AcDbDictionary
  0
ENDSEC
  0
EOF
