  0
SECTION
  2
HEADER
  9
$ACADVER
  1
AC1014
  9
$HANDSEED
  5
FFFF
  9
$MEASUREMENT
 70
     1
  0
ENDSEC
  0
SECTION
  2
TABLES
  0
TABLE
  2
VPORT
  5
8
330
0
100
AcDbSymbolTable
 70
     4
  0
VPORT
  5
2E
330
8
100
AcDbSymbolTableRecord
100
AcDbViewportTableRecord
  2
*ACTIVE
 70
     0
 10
0.0
 20
0.0
 11
1.0
 21
1.0
 12
210.0
 22
148.5
 13
0.0
 23
0.0
 14
10.0
 24
10.0
 15
10.0
 25
10.0
 16
0.0
 26
0.0
 36
1.0
 17
0.0
 27
0.0
 37
0.0
 40
341.0
 41
1.24
 42
50.0
 43
0.0
 44
0.0
 50
0.0
 51
0.0
 71
     0
 72
   100
 73
     1
 74
     3
 75
     0
 76
     0
 77
     0
 78
     0
  0
ENDTAB
  0
TABLE
  2
LTYPE
  5
5
330
0
100
AcDbSymbolTable
 70
     1
  0
LTYPE
  5
14
330
5
100
AcDbSymbolTableRecord
100
AcDbLinetypeTableRecord
  2
BYBLOCK
 70
     0
  3

 72
    65
 73
     0
 40
0.0
  0
LTYPE
  5
15
330
5
100
AcDbSymbolTableRecord
100
AcDbLinetypeTableRecord
  2
BYLAYER
 70
     0
  3

 72
    65
 73
     0
 40
0.0
  0
LTYPE
  5
16
330
5
100
AcDbSymbolTableRecord
100
AcDbLinetypeTableRecord
  2
CONTINUOUS
 70
     0
  3
Solid line
 72
    65
 73
     0
 40
0.0
  0
ENDTAB
  0
TABLE
  2
LAYER
  5
2
100
AcDbSymbolTable
 70
3
  0
LAYER
  5
50
100
AcDbSymbolTableRecord
100
AcDbLayerTableRecord
  2
0
 70
0
  6
CONTINUOUS
  0
LAYER
  5
51
100
AcDbSymbolTableRecord
100
AcDbLayerTableRecord
  2
Ebene_1
 70
0
  6
CONTINUOUS
  0
LAYER
  5
52
100
AcDbSymbolTableRecord
100
AcDbLayerTableRecord
  2
Ebene_2
 70
0
  6
CONTINUOUS
  0
ENDTAB
  0
TABLE
  2
STYLE
  5
3
330
0
100
AcDbSymbolTable
 70
     1
  0
STYLE
  5
11
330
3
100
AcDbSymbolTableRecord
100
AcDbTextStyleTableRecord
  2
STANDARD
 70
     0
 40
0.0
 41
1.0
 50
0.0
 71
     0
 42
2.5
  3
txt
  4

  0
ENDTAB
  0
TABLE
  2
VIEW
  5
6
330
0
100
AcDbSymbolTable
 70
     0
  0
ENDTAB
  0
TABLE
  2
UCS
  5
7
330
0
100
AcDbSymbolTable
 70
     0
  0
ENDTAB
  0
TABLE
  2
APPID
  5
9
330
0
100
AcDbSymbolTable
 70
     2
  0
APPID
  5
12
330
9
100
AcDbSymbolTableRecord
100
AcDbRegAppTableRecord
  2
ACAD
 70
     0
  0
ENDTAB
  0
TABLE
  2
DIMSTYLE
  5
A
330
0
100
AcDbSymbolTable
 70
     1
  0
DIMSTYLE
105
27
330
A
100
AcDbSymbolTableRecord
100
AcDbDimStyleTableRecord
  2
ISO-25
 70
     0
  3

  4

  5

  6

  7

 40
1.0
 41
2.5
 42
0.625
 43
3.75
 44
1.25
 45
0.0
 46
0.0
 47
0.0
 48
0.0
140
2.5
141
2.5
142
0.0
143
0.03937007874016
144
1.0
145
0.0
146
1.0
147
0.625
 71
     0
 72
     0
 73
     0
 74
     0
 75
     0
 76
     0
 77
     1
 78
     8
170
     0
171
     3
172
     1
173
     0
174
     0
175
     0
176
     0
177
     0
178
     0
270
     2
271
     2
272
     2
273
     2
274
     3
340
11
275
     0
280
     0
281
     0
282
     0
283
     0
284
     8
285
     0
286
     0
287
     3
288
     0
  0
ENDTAB
  0
TABLE
  2
BLOCK_RECORD
  5
1
330
0
100
AcDbSymbolTable
 70
     1
  0
BLOCK_RECORD
  5
1F
330
1
100
AcDbSymbolTableRecord
100
AcDbBlockTableRecord
  2
*MODEL_SPACE
  0
BLOCK_RECORD
  5
1B
330
1
100
AcDbSymbolTableRecord
100
AcDbBlockTableRecord
  2
*PAPER_SPACE
  0
ENDTAB
  0
ENDSEC
  0
SECTION
  2
BLOCKS
  0
BLOCK
  5
20
330
1F
100
AcDbEntity
  8
0
100
AcDbBlockBegin
  2
*MODEL_SPACE
 70
     0
 10
0.0
 20
0.0
 30
0.0
  3
*MODEL_SPACE
  1

  0
ENDBLK
  5
21
330
1F
100
AcDbEntity
  8
0
100
AcDbBlockEnd
  0
BLOCK
  5
1C
330
1B
100
AcDbEntity
 67
     1
  8
0
100
AcDbBlockBegin
  2
*PAPER_SPACE
  1

  0
ENDBLK
  5
1D
330
1B
100
AcDbEntity
 67
     1
  8
0
100
AcDbBlockEnd
  0
ENDSEC
  0
SECTION
  2
ENTITIES
  0
LINE
  5
100
100
AcDbEntity
  8
Ebene_2
 62
7
100
AcDbLine
 10
0.820618
 20
256.557643
 30
0.0
 11
10.093633
 21
256.809628
 31
0.0
  0
LINE
  5
101
100
AcDbEntity
  8
Ebene_2
 62
7
100
AcDbLine
 10
10.093633
 20
256.809628
 30
0.0
 11
19.921015
 21
256.960817
 31
0.0
  0
LINE
  5
102
100
AcDbEntity
  8
Ebene_2
 62
7
100
AcDbLine
 10
19.921015
 20
256.960817
 30
0.0
 11
30.101173
 21
257.061610
 31
0.0
  0
LINE
  5
103
100
AcDbEntity
  8
Ebene_2
 62
7
100
AcDbLine
 10
30.101173
 20
257.061610
 30
0.0
 11
40.029347
 21
257.212802
 31
0.0
  0
LINE
  5
104
100
AcDbEntity
  8
Ebene_2
 62
7
100
AcDbLine
 10
40.029347
 20
257.212802
 30
0.0
 11
50.058317
 21
257.313595
 31
0.0
  0
LINE
  5
105
100
AcDbEntity
  8
Ebene_2
 62
7
100
AcDbLine
 10
50.058317
 20
257.313595
 30
0.0
 11
60.036888
 21
257.313595
 31
0.0
  0
LINE
  5
106
100
AcDbEntity
  8
Ebene_2
 62
7
100
AcDbLine
 10
60.036888
 20
257.313595
 30
0.0
 11
70.015458
 21
257.363991
 31
0.0
  0
LINE
  5
107
100
AcDbEntity
  8
Ebene_2
 62
7
100
AcDbLine
 10
70.015458
 20
257.363991
 30
0.0
 11
80.195618
 21
257.363991
 31
0.0
  0
LINE
  5
108
100
AcDbEntity
  8
Ebene_2
 62
7
100
AcDbLine
 10
80.195618
 20
257.363991
 30
0.0
 11
89.972602
 21
257.212802
 31
0.0
  0
LINE
  5
109
100
AcDbEntity
  8
Ebene_2
 62
7
100
AcDbLine
 10
89.972602
 20
257.212802
 30
0.0
 11
100.051969
 21
257.112009
 31
0.0
  0
LINE
  5
10a
100
AcDbEntity
  8
Ebene_2
 62
7
100
AcDbLine
 10
100.051969
 20
257.112009
 30
0.0
 11
110.131332
 21
257.061610
 31
0.0
  0
LINE
  5
10b
100
AcDbEntity
  8
Ebene_2
 62
7
100
AcDbLine
 10
110.131332
 20
257.061610
 30
0.0
 11
120.109906
 21
256.608039
 31
0.0
  0
LINE
  5
10c
100
AcDbEntity
  8
Ebene_2
 62
7
100
AcDbLine
 10
120.109906
 20
256.608039
 30
0.0
 11
130.038080
 21
256.154469
 31
0.0
  0
LINE
  5
10d
100
AcDbEntity
  8
Ebene_2
 62
7
100
AcDbLine
 10
130.038080
 20
256.154469
 30
0.0
 11
140.016651
 21
255.852087
 31
0.0
  0
LINE
  5
10e
100
AcDbEntity
  8
Ebene_2
 62
7
100
AcDbLine
 10
140.016651
 20
255.852087
 30
0.0
 11
150.146413
 21
255.297721
 31
0.0
  0
LINE
  5
10f
100
AcDbEntity
  8
Ebene_2
 62
7
100
AcDbLine
 10
150.146413
 20
255.297721
 30
0.0
 11
160.074587
 21
254.592166
 31
0.0
  0
LINE
  5
110
100
AcDbEntity
  8
Ebene_2
 62
7
100
AcDbLine
 10
160.074587
 20
254.592166
 30
0.0
 11
170.153951
 21
253.937009
 31
0.0
  0
LINE
  5
111
100
AcDbEntity
  8
Ebene_2
 62
7
100
AcDbLine
 10
170.153951
 20
253.937009
 30
0.0
 11
179.930936
 21
253.332247
 31
0.0
  0
LINE
  5
112
100
AcDbEntity
  8
Ebene_2
 62
7
100
AcDbLine
 10
179.930936
 20
253.332247
 30
0.0
 11
190.060699
 21
252.677087
 31
0.0
  0
LINE
  5
113
100
AcDbEntity
  8
Ebene_2
 62
7
100
AcDbLine
 10
190.060699
 20
252.677087
 30
0.0
 11
200.140062
 21
251.719547
 31
0.0
  0
LINE
  5
114
100
AcDbEntity
  8
Ebene_2
 62
7
100
AcDbLine
 10
200.140062
 20
251.719547
 30
0.0
 11
210.320221
 21
250.913199
 31
0.0
  0
LINE
  5
115
100
AcDbEntity
  8
Ebene_2
 62
7
100
AcDbLine
 10
-0.036127
 20
36.373913
 30
0.0
 11
9.967643
 21
36.021136
 31
0.0
  0
LINE
  5
116
100
AcDbEntity
  8
Ebene_2
 62
7
100
AcDbLine
 10
9.967643
 20
36.021136
 30
0.0
 11
19.996610
 21
35.769153
 31
0.0
  0
LINE
  5
117
100
AcDbEntity
  8
Ebene_2
 62
7
100
AcDbLine
 10
19.996610
 20
35.769153
 30
0.0
 11
30.101173
 21
35.416376
 31
0.0
  0
LINE
  5
118
100
AcDbEntity
  8
Ebene_2
 62
7
100
AcDbLine
 10
30.101173
 20
35.416376
 30
0.0
 11
39.978951
 21
35.239987
 31
0.0
  0
LINE
  5
119
100
AcDbEntity
  8
Ebene_2
 62
7
100
AcDbLine
 10
39.978951
 20
35.239987
 30
0.0
 11
49.982721
 21
35.013201
 31
0.0
  0
LINE
  5
11a
100
AcDbEntity
  8
Ebene_2
 62
7
100
AcDbLine
 10
49.982721
 20
35.013201
 30
0.0
 11
59.961295
 21
34.912406
 31
0.0
  0
LINE
  5
11b
100
AcDbEntity
  8
Ebene_2
 62
7
100
AcDbLine
 10
59.961295
 20
34.912406
 30
0.0
 11
69.965062
 21
34.836813
 31
0.0
  0
LINE
  5
11c
100
AcDbEntity
  8
Ebene_2
 62
7
100
AcDbLine
 10
69.965062
 20
34.836813
 30
0.0
 11
79.943635
 21
34.786413
 31
0.0
  0
LINE
  5
11d
100
AcDbEntity
  8
Ebene_2
 62
7
100
AcDbLine
 10
79.943635
 20
34.786413
 30
0.0
 11
89.997802
 21
34.736017
 31
0.0
  0
LINE
  5
11e
100
AcDbEntity
  8
Ebene_2
 62
7
100
AcDbLine
 10
89.997802
 20
34.736017
 30
0.0
 11
99.951176
 21
34.786413
 31
0.0
  0
LINE
  5
11f
100
AcDbEntity
  8
Ebene_2
 62
7
100
AcDbLine
 10
99.951176
 20
34.786413
 30
0.0
 11
110.005343
 21
34.862009
 31
0.0
  0
LINE
  5
120
100
AcDbEntity
  8
Ebene_2
 62
7
100
AcDbLine
 10
110.005343
 20
34.862009
 30
0.0
 11
120.034310
 21
34.988002
 31
0.0
  0
LINE
  5
121
100
AcDbEntity
  8
Ebene_2
 62
7
100
AcDbLine
 10
120.034310
 20
34.988002
 30
0.0
 11
130.038080
 21
35.164391
 31
0.0
  0
LINE
  5
122
100
AcDbEntity
  8
Ebene_2
 62
7
100
AcDbLine
 10
130.038080
 20
35.164391
 30
0.0
 11
140.041850
 21
35.491969
 31
0.0
  0
LINE
  5
123
100
AcDbEntity
  8
Ebene_2
 62
7
100
AcDbLine
 10
140.041850
 20
35.491969
 30
0.0
 11
149.970024
 21
36.021136
 31
0.0
  0
LINE
  5
124
100
AcDbEntity
  8
Ebene_2
 62
7
100
AcDbLine
 10
149.970024
 20
36.021136
 30
0.0
 11
159.998991
 21
36.550302
 31
0.0
  0
LINE
  5
125
100
AcDbEntity
  8
Ebene_2
 62
7
100
AcDbLine
 10
159.998991
 20
36.550302
 30
0.0
 11
170.027961
 21
37.054272
 31
0.0
  0
LINE
  5
126
100
AcDbEntity
  8
Ebene_2
 62
7
100
AcDbLine
 10
170.027961
 20
37.054272
 30
0.0
 11
180.006532
 21
37.608636
 31
0.0
  0
LINE
  5
127
100
AcDbEntity
  8
Ebene_2
 62
7
100
AcDbLine
 10
180.006532
 20
37.608636
 30
0.0
 11
190.035499
 21
38.339391
 31
0.0
  0
LINE
  5
128
100
AcDbEntity
  8
Ebene_2
 62
7
100
AcDbLine
 10
190.035499
 20
38.339391
 30
0.0
 11
200.014072
 21
38.944153
 31
0.0
  0
LINE
  5
129
100
AcDbEntity
  8
Ebene_2
 62
7
100
AcDbLine
 10
200.014072
 20
38.944153
 30
0.0
 11
208.883913
 21
39.599313
 31
0.0
  0
ENDSEC
  0
SECTION
  2
OBJECTS
  0
DICTIONARY
  5
C
330
0
100
AcDbDictionary
  3
ACAD_GROUP
350
D
  3
ACAD_MLINESTYLE
350
17
  0
DICTIONARY
  5
D
330
C
100
AcDbDictionary
  0
DICTIONARY
  5
1A
330
C
100
AcDbDictionary
  0
DICTIONARY
  5
17
330
C
100
AcDbDictionary
  3
STANDARD
350
18
  0
DICTIONARY
  5
19
330
C
100
AcDbDictionary
  0
ENDSEC
  0
EOF
